<mxfile host="app.diagrams.net" modified="2021-08-18T00:53:26.139Z" agent="5.0 (Macintosh; Intel Mac OS X 10_15_7) AppleWebKit/537.36 (KHTML, like Gecko) Chrome/92.0.4515.107 Safari/537.36" etag="CAIFQeMhWkWkGVBlc0lP" version="14.9.3" type="github">
  <diagram name="Page-1" id="13e1069c-82ec-6db2-03f1-153e76fe0fe0">
    <mxGraphModel dx="1581" dy="817" grid="1" gridSize="10" guides="1" tooltips="1" connect="1" arrows="1" fold="1" page="1" pageScale="1" pageWidth="1100" pageHeight="850" background="none" math="0" shadow="0">
      <root>
        <mxCell id="0" />
        <mxCell id="1" parent="0" />
        <mxCell id="yhSfW9uCgV4h4QmzOXTi-1" value="Student" style="shape=umlActor;verticalLabelPosition=bottom;verticalAlign=top;html=1;outlineConnect=0;" vertex="1" parent="1">
          <mxGeometry x="240" y="210" width="30" height="60" as="geometry" />
        </mxCell>
        <mxCell id="yhSfW9uCgV4h4QmzOXTi-227" style="edgeStyle=orthogonalEdgeStyle;rounded=0;orthogonalLoop=1;jettySize=auto;html=1;exitX=1;exitY=0.3333333333333333;exitDx=0;exitDy=0;exitPerimeter=0;entryX=0;entryY=0.5;entryDx=0;entryDy=0;" edge="1" parent="1" source="yhSfW9uCgV4h4QmzOXTi-2" target="yhSfW9uCgV4h4QmzOXTi-11">
          <mxGeometry relative="1" as="geometry" />
        </mxCell>
        <mxCell id="yhSfW9uCgV4h4QmzOXTi-2" value="Trainer" style="shape=umlActor;verticalLabelPosition=bottom;verticalAlign=top;html=1;outlineConnect=0;" vertex="1" parent="1">
          <mxGeometry x="240" y="370" width="30" height="60" as="geometry" />
        </mxCell>
        <mxCell id="yhSfW9uCgV4h4QmzOXTi-3" value="Admin" style="shape=umlActor;verticalLabelPosition=bottom;verticalAlign=top;html=1;outlineConnect=0;" vertex="1" parent="1">
          <mxGeometry x="240" y="520" width="30" height="60" as="geometry" />
        </mxCell>
        <mxCell id="yhSfW9uCgV4h4QmzOXTi-5" value="" style="rounded=0;whiteSpace=wrap;html=1;" vertex="1" parent="1">
          <mxGeometry x="360" y="80" width="390" height="680" as="geometry" />
        </mxCell>
        <mxCell id="yhSfW9uCgV4h4QmzOXTi-7" value="&lt;u&gt;:Mobile Devices/Computers&lt;/u&gt;" style="rounded=0;whiteSpace=wrap;html=1;" vertex="1" parent="1">
          <mxGeometry x="840" y="180" width="120" height="60" as="geometry" />
        </mxCell>
        <mxCell id="yhSfW9uCgV4h4QmzOXTi-8" value="&lt;u&gt;:Database Servers&lt;/u&gt;" style="rounded=0;whiteSpace=wrap;html=1;" vertex="1" parent="1">
          <mxGeometry x="840" y="360" width="120" height="60" as="geometry" />
        </mxCell>
        <mxCell id="yhSfW9uCgV4h4QmzOXTi-224" style="edgeStyle=orthogonalEdgeStyle;rounded=0;orthogonalLoop=1;jettySize=auto;html=1;exitX=0.5;exitY=0;exitDx=0;exitDy=0;entryX=0.5;entryY=0;entryDx=0;entryDy=0;" edge="1" parent="1" source="yhSfW9uCgV4h4QmzOXTi-11" target="yhSfW9uCgV4h4QmzOXTi-7">
          <mxGeometry relative="1" as="geometry">
            <Array as="points">
              <mxPoint x="470" y="50" />
              <mxPoint x="900" y="50" />
            </Array>
          </mxGeometry>
        </mxCell>
        <mxCell id="yhSfW9uCgV4h4QmzOXTi-11" value="Signup" style="ellipse;whiteSpace=wrap;html=1;" vertex="1" parent="1">
          <mxGeometry x="410" y="120" width="120" height="80" as="geometry" />
        </mxCell>
        <mxCell id="yhSfW9uCgV4h4QmzOXTi-225" value="" style="endArrow=classic;startArrow=classic;html=1;entryX=0.5;entryY=1;entryDx=0;entryDy=0;exitX=0.5;exitY=0;exitDx=0;exitDy=0;" edge="1" parent="1" source="yhSfW9uCgV4h4QmzOXTi-8" target="yhSfW9uCgV4h4QmzOXTi-7">
          <mxGeometry width="50" height="50" relative="1" as="geometry">
            <mxPoint x="500" y="470" as="sourcePoint" />
            <mxPoint x="550" y="420" as="targetPoint" />
          </mxGeometry>
        </mxCell>
        <mxCell id="yhSfW9uCgV4h4QmzOXTi-226" style="edgeStyle=orthogonalEdgeStyle;rounded=0;orthogonalLoop=1;jettySize=auto;html=1;exitX=1;exitY=0.3333333333333333;exitDx=0;exitDy=0;exitPerimeter=0;entryX=0;entryY=0.5;entryDx=0;entryDy=0;" edge="1" parent="1" source="yhSfW9uCgV4h4QmzOXTi-1" target="yhSfW9uCgV4h4QmzOXTi-11">
          <mxGeometry relative="1" as="geometry" />
        </mxCell>
        <mxCell id="yhSfW9uCgV4h4QmzOXTi-235" style="edgeStyle=orthogonalEdgeStyle;rounded=0;orthogonalLoop=1;jettySize=auto;html=1;exitX=1;exitY=0.5;exitDx=0;exitDy=0;entryX=0;entryY=0;entryDx=0;entryDy=0;" edge="1" parent="1" source="yhSfW9uCgV4h4QmzOXTi-228" target="yhSfW9uCgV4h4QmzOXTi-7">
          <mxGeometry relative="1" as="geometry" />
        </mxCell>
        <mxCell id="yhSfW9uCgV4h4QmzOXTi-228" value="Login" style="ellipse;whiteSpace=wrap;html=1;" vertex="1" parent="1">
          <mxGeometry x="580" y="120" width="120" height="80" as="geometry" />
        </mxCell>
        <mxCell id="yhSfW9uCgV4h4QmzOXTi-243" style="edgeStyle=orthogonalEdgeStyle;curved=1;rounded=0;orthogonalLoop=1;jettySize=auto;html=1;exitX=0.75;exitY=0.1;exitDx=0;exitDy=0;exitPerimeter=0;entryX=0.5;entryY=0;entryDx=0;entryDy=0;" edge="1" parent="1" source="yhSfW9uCgV4h4QmzOXTi-1" target="yhSfW9uCgV4h4QmzOXTi-228">
          <mxGeometry relative="1" as="geometry">
            <Array as="points">
              <mxPoint x="380" y="216" />
              <mxPoint x="380" y="100" />
              <mxPoint x="640" y="100" />
            </Array>
          </mxGeometry>
        </mxCell>
        <mxCell id="yhSfW9uCgV4h4QmzOXTi-244" style="edgeStyle=orthogonalEdgeStyle;curved=1;rounded=0;orthogonalLoop=1;jettySize=auto;html=1;exitX=0.5;exitY=0;exitDx=0;exitDy=0;exitPerimeter=0;entryX=1;entryY=0.5;entryDx=0;entryDy=0;" edge="1" parent="1" source="yhSfW9uCgV4h4QmzOXTi-2" target="yhSfW9uCgV4h4QmzOXTi-228">
          <mxGeometry relative="1" as="geometry">
            <Array as="points">
              <mxPoint x="255" y="60" />
              <mxPoint x="720" y="60" />
              <mxPoint x="720" y="160" />
            </Array>
          </mxGeometry>
        </mxCell>
        <mxCell id="yhSfW9uCgV4h4QmzOXTi-245" style="edgeStyle=orthogonalEdgeStyle;curved=1;rounded=0;orthogonalLoop=1;jettySize=auto;html=1;exitX=0.75;exitY=0.1;exitDx=0;exitDy=0;exitPerimeter=0;" edge="1" parent="1" source="yhSfW9uCgV4h4QmzOXTi-3">
          <mxGeometry relative="1" as="geometry">
            <mxPoint x="700" y="160" as="targetPoint" />
            <Array as="points">
              <mxPoint x="262" y="70" />
              <mxPoint x="700" y="70" />
            </Array>
          </mxGeometry>
        </mxCell>
      </root>
    </mxGraphModel>
  </diagram>
</mxfile>
